<?xml version="1.0" encoding="UTF-8"?>
<svg id="Layer_1" xmlns="http://www.w3.org/2000/svg" version="1.1" viewBox="0 0 1024 1024">
  <!-- Generator: Adobe Illustrator 29.3.1, SVG Export Plug-In . SVG Version: 2.1.0 Build 151)  -->
  <defs>
    <style>
      .st0 {
        fill: #fed29f;
      }

      .st1 {
        fill: #662725;
      }

      .st2 {
        fill: #ff7a32;
      }
    </style>
  </defs>
  <g id="Layer_2">
    <path class="st1" d="M451.6,361.8c27.4-90.3,218.1-69.9,241-176.8,17.2-139.6-172.1-107.7-258.9-41.4-60.8,46.5-111.4,115.4-114.6,186.4-.2,3.6-36.5-18.8-77.9-30.1-25.9-7-51.6-14.2-69.1-9-10.8,3.2-16.1,14.6-19.7,32.8-9.7,50.2-5.7,122.4,11.4,171.7,10.7,31,31.5,42.7,22.6,56.9-24.3,38.6-38.5,71.3-46.6,108.8-4.2,19.3-8.7,44.1-5.6,70.3.9,7.2,24.7,5,25.5,12.4,21.4,129.8,250.3,194,363.6,193.2,101.1-.9,183.1-27.5,270.8-79,48.3-26.2,81.4-62.6,92.6-112.7,1.9-8.3,26.7-8.4,26.5-12.3-.7-25.5-.7-54.9-8.5-77.3-8-20.7-22.8-69.8-38.8-92.3-4.3-6-8.9-13.7-8.5-16,.8-4.6,14.4-21.9,19.7-40.9,18-63.7,22.6-141.8,10.9-196.5-5.8-27.3-38.1-23.4-88.4-7.2-60.7,19.5-120.6,59-142.4,81.5-58.6-19.4-118.7-34.5-205.5-22.7"/>
  </g>
  <g id="Layer_4">
    <path class="st2" d="M377.7,228.6c10.7,3.1,26.8,9.2,43.2,21.8,23.1,17.8,34.5,39.1,39.5,50.4,0,0-36.4,37.8-36.8,40.2s-15.3-18.4-36.1-31-33.4-18.4-36.1-19.1,26.2-62.3,26.2-62.3h0Z"/>
    <path class="st2" d="M477.3,138.6c10.4,5.7,33.1,20.4,49.5,47.4,18.1,29.9,19,58.7,18.7,70.5l-45.7,19s-4-24.1-16.9-42.1c-12.9-18-29.5-32.8-40.2-39.8-10.7-7-19.8-13-19.8-13,0,0,20.8-19.6,27.9-25.2,8.9-7,26.5-16.7,26.5-16.7h0Z"/>
    <path class="st2" d="M530.6,114.3c17.4-4.5,42.7-9.6,67.4-9.2,5,0,11.1.4,18.4,2.6,4.6,1.3,19.8,6,31.7,20.9,11,13.9,12.7,28.4,13.3,34.7.6,6.1,1.8,20.2-5.6,35.2-7.1,14.2-18.1,21.5-28.1,28.1-11.8,7.7-22.8,11.7-30.1,13.8,0,0-1.4-26.2-3.1-34.7s-7.7-24.9-11.7-32.9c-4.4-8.6-12.1-19.3-23-30.9-16.9-18-29.1-27.6-29.1-27.6h0Z"/>
    <path class="st2" d="M415.2,887c-7.3-2.1-17.8-5.5-26.2-14.2-12.3-12.7-14.8-28-16.2-36.8-2-12.8-.5-22.7-.2-24.7,2.3-13.8,8-23,17.5-37.8,2.4-3.8,10.6-16.1,23.5-30.8,12-13.7,15.1-14.6,18.4-22.3,1.2-2.7,7.8-18.1.3-34.4-6.3-13.8-18.6-19.3-22.3-20.9-14.9-6.4-28.7-2.7-35.1-.8-11.7,3.3-20.5,10.9-37.6,25.9-16.2,14.2-26.5,25.9-34.4,34.9-9.9,11.4-15,17.2-19.7,26.2-8,15-10,28-10.5,32.2-.9,6.5-2.1,15.6.3,26.5,4.4,19.8,17.2,29.4,14.6,32.3-2.7,3.1-18.3-6.3-27.1-11.6-7.7-4.6-16.1-9.7-26.4-18.5-8.3-7.2-22.7-19.8-33.9-40.5-3.8-7.1-7.4-13.8-9.4-23.7-2.6-12.8-.9-23.4.5-32.2,3.7-22.6,11.2-33.3,8.2-35.6-5.2-3.9-28.6,25.6-36.3,20.9-4.1-2.5-1.5-13.5,3.2-33.4,5-21,10.9-36.9,14-44.8,6.1-15.7,12.2-28.6,17.4-38.5,9.8-19,18.8-32.5,21.6-36.6,6.6-9.8,11.8-16.5,19.7-26.5,9-11.4,17-21.7,26.5-32.2,23.3-25.6,45.6-41.4,50.2-44.6,20.5-14.4,38.2-22.7,52.1-29.1,7.1-3.3,18.3-8.4,33.7-13.8,30.8-10.7,55.2-14.1,63.8-15.1,7.4-.9,13.1-1.3,24.7-2,19.1-1.2,37.4-2.4,59.6-1,17.6,1.1,30.7,3.5,39,4.9,47.4,8.5,81.4,24,90.2,28.1,26.5,12.4,44.9,25,52.4,30.5,13.8,9.9,22.7,18,24.7,19.9,5.9,5.5,7.3,7.3,24,25.4,21.3,23,22,23.2,27.9,30.5,8.9,10.9,15,20,20.1,27.4,5.4,7.9,11.3,16.7,17.9,28.4,3.6,6.4,13.5,24.8,22.3,50.4,2.3,6.8,5.2,17.9,10.9,40,6.1,23.5,6.9,29,4.4,30.6-6.9,4.6-31.5-24.6-36.6-20.6-2.1,1.6,1.2,6.9,4.4,20.8.9,3.9,4,18,3.7,34.2-.1,10.3-.2,17.5-3.2,26.4-3.2,9.4-8,15.5-16.5,26.5-3.4,4.4-8.5,11-16.5,18.4-5.8,5.5-10.9,9.2-21.6,16.5-24.4,16.6-36.6,24.9-38.6,22.8-1.9-2,6.4-9.2,11.7-24.3,5.8-16.5,4.1-31.2,3.4-36.8-2.3-17.8-10.1-29.4-21.3-46-12-17.8-23-28-42.5-46.3-20.5-19.2-29-23.5-37.5-26-5.1-1.5-16.8-4.8-30.6-1-5.2,1.4-17.8,4.9-25,16.5-4.8,7.8-5,15.6-5.1,22.5,0,4.6-.2,11.9,3.6,19.7,2.2,4.5,4.7,7.4,6,8.8,17.6,20,26.4,30.1,31.2,36.3,5.1,6.7,14.3,18.9,19.2,37.1,1.5,5.8,4.3,16.3,2.7,30-1.6,14-6.8,23.9-8.7,27.2-2.3,4.1-5.5,9.5-11.4,14.6-9,7.8-22.8,8.8-22.8,8.8,0,0,5-4.1,9.6-11.5,8-12.6,10.2-28.2,11.3-36.8.5-4.3,1.5-21.1-5-41.5-2-6.1-4.3-11.1-6.6-15.5-3-5.7-5.9-10.2-8.8-14.4-4-5.8-18.2-24.4-43.3-41.5-7.3-5-14.2-8.6-20.3-11.6-4.2-2.1-8.2-3.8-11.7-5.2-3.3-1.3-6.2-2.4-8.8-3.2-5.5-1.7-9.2-2.7-11.1-3.1-6.4-1.3-11.9-2.3-14.1-2.2-4.5.3-8,.8-18.1,3.2-6.1,1.5-12.7,3.7-23.6,8.7-8.1,3.6-15.2,7.8-22.7,12.6-5.7,3.6-11,7.5-17.5,12.7-4.4,3.5-9.3,8.4-14.8,14.5-4.5,5.1-9.5,11-14.4,18.3-1.9,2.8-3.1,4.8-5.3,8.7-4.7,8.3-5.9,13-9.4,22.6-.7,1.9-1.6,6.7-1.6,6.7,0,0-1.3,5.8-1.7,9.3-.6,5.1-1,11-.6,18,.2,3,.4,4.7.9,7.8.3,2,.8,4.3,1.2,6.5.5,2.6,1.1,5,1.7,7.3,1.3,5.2,3.2,9.4,5.1,13.5,3.3,7.2,9.9,13.8,13.3,17.1h0Z"/>
  </g>
  <g id="Layer_3">
    <path class="st0" d="M215.1,406.6c0-7.9.2-19.4.6-26.4.2-1.8.2-4.2,2.2-4.6,3.3-.3,7.3,1,11,1.6,9.4,1.9,17.1,3.6,24.7,8.4,14.9,8.9,33,23.6,47.8,39,5,5.2,15.3,19.4,15.3,19.4,0,0,2,.3,3.6-.6,5.9-3.4,22.5-13.2,34.5-20,5-3,11.7-7.2,11.7-7.2,0,0-2.2-3.4-3.5-5.1-9-10.8-18-20-29.2-28.5-45-33.4-98.6-51.8-145.6-60.6-7.9-.9-8.6,6.3-10.1,14.1-10.7,81.4,2.2,125.4,28.2,194.2,2.1,6,13.3,17.5,13.3,17.5,0,0,2.5-2,3.6-3.4,3.6-4.8,8.8-11.8,12.4-16.9,1.2-1.8,2.1-4.1,2.1-4.1,0,0-.8-3-1.6-5.5-11.5-33.9-20.6-79.9-20.8-110.9v-.3Z"/>
    <path class="st0" d="M832,408.2c.1-7.9-.2-19.4-.6-26.4-.2-1.8-.2-4.2-2.2-4.6-3.3-.3-7.3,1-11,1.6-9.4,1.9-17.1,3.6-24.7,8.3-14.9,8.9-33.1,23.6-47.8,39-5,5.2-10.4,13.6-14.5,18.4-.6.7-1.3,1.6-1.3,1.6,0,0-2.2-.6-3.1-1.1-5.9-3.4-22.5-13.3-34.4-20-4.8-2.9-11.6-6.1-11.6-6.1,0,0,2.1-4.4,3.5-6.3,9-10.8,18-20,29.3-28.5,45-33.3,98.7-51.6,145.7-60.4,7.9-.8,8.6,6.4,10.1,14.1,10.5,81.4-2.4,125.4-28.5,194.1-2.1,6-13.4,17.6-13.4,17.6,0,0-2.4-2.1-3.6-3.5-3.6-4.8-8.8-11.8-12.3-17-1.2-1.8-2.1-4.1-2.1-4.1,0,0,.8-3,1.7-5.5,11.6-33.9,20.7-79.9,21-110.9v-.3h0Z"/>
    <path class="st0" d="M326,642.2c24.4-11.2,44.7-14.2,57.5-15,13-.8,19,.6,21.8,1.4,14.5,4,25.1,13.9,35.7,24.2,12.6,12.1,17.4,16.3,17.4,16.3,0,0,8.9-34.7-4.1-62-4.1-8.6-12.6-26.4-33-36.1-29-13.8-57.2.6-59.2,1.7-24,12.8-38.2,40.1-36.1,69.5h0Z"/>
    <path class="st0" d="M523.5,699.5s-.4,0-1.9,0c-1.3.1-3,.2-5.8.7-2.2.4-4.9.9-7.9,1.7-1.1.3-2.3.5-3.6.9-1.1.3-2.3.6-3.4.9-1.7.5-3.5,1.1-5.5,1.8-15.6,5.7-36.5,15.5-58.9,34.3-2.3,1.9-3.9,3.8-4.6,4.6-9.9,10.3-28.9,30-36.3,59.2-1.7,6.8-5.6,22.8-1.5,42.9,2.1,10.2,5.3,26.3,19.4,39.3,14.2,13.1,30.9,15.1,37.8,15.8,6.8.7,28.3,1.1,47-12.3,9.3-6.7,13.6-24.7,14.6-29.9.2-.8-.2-1.6-1-2-2.2-1.2-8-4.3-20.8-12.2-8.3-5.1-13.5-12-15.2-16.6-3.8-9.7-3.1-18.7.4-24.6,3.2-5.3,5.4-9.8,10.3-11.4,13.9-4.6,30.9-3.7,35.4-3.3h1.3s.9,0,1.2,0c4.5-.3,21.5-1.2,35.4,3.4,4.9,1.6,7.1,6.2,10.3,11.4,3.5,5.9,4.2,14.9.4,24.6-1.8,4.5-6.9,11.5-15.3,16.6-12.9,7.8-18.6,10.9-20.8,12.1-.8.4-1.2,1.2-1,2,1,5.2,5.3,23.2,14.5,29.9,18.6,13.4,40.2,13,47,12.4,6.9-.7,23.5-2.6,37.8-15.7,14.1-13,17.4-29.1,19.5-39.3,4.1-20,.3-36.1-1.4-42.9-7.3-29.2-26.2-49-36.1-59.3-.7-.8-2.3-2.7-4.6-4.6-22.3-18.9-43.2-28.8-58.8-34.5-1.9-.7-3.7-1.2-5.5-1.8-1.2-.3-2.3-.6-3.4-.9-1.2-.3-2.4-.6-3.6-.9-3-.7-5.7-1.3-7.9-1.7-2.7-.5-4.5-.6-5.8-.7-1.5-.1-1.9,0-1.9,0"/>
    <path class="st0" d="M718.5,641.5c-24.5-11.1-44.8-14-57.6-14.8-13-.8-19,.7-21.8,1.4-14.5,4.1-25,14-35.7,24.3-12.5,12.1-17.3,16.4-17.3,16.4,0,0-9.1-34.7,3.9-62,4.1-8.6,12.5-26.4,32.9-36.2,29-13.9,57.2.4,59.2,1.5,24,12.7,38.3,40,36.3,69.3h0Z"/>
  </g>
</svg>