<?xml version="1.0" encoding="UTF-8"?>
<svg id="Layer_2_copy" data-name="Layer 2 copy" xmlns="http://www.w3.org/2000/svg" viewBox="0 0 600.11 170">
  <defs>
    <style>
      .cls-1 {
        fill: #fed29f;
      }

      .cls-2 {
        fill: #662725;
      }

      .cls-3 {
        fill: #ff7a32;
      }

      .cls-4 {
        fill: #2e2e2e;
      }
    </style>
  </defs>
  <g>
    <g id="Layer_2" data-name="Layer 2">
      <path class="cls-2" d="M63.71,54.95c5.48-18.05,43.61-13.98,48.2-35.36,3.43-27.93-34.42-21.55-51.78-8.27-12.16,9.3-22.27,23.07-22.92,37.28-.03.71-7.3-3.76-15.59-6.01-5.18-1.41-10.32-2.84-13.82-1.81-2.16.64-3.23,2.92-3.93,6.56-1.94,10.03-1.14,24.47,2.27,34.34,2.14,6.2,6.3,8.54,4.52,11.38-4.86,7.73-7.69,14.27-9.33,21.75-.84,3.86-1.75,8.82-1.12,14.06.17,1.43,4.94,1,5.11,2.49,4.28,25.97,50.06,38.8,72.72,38.64,20.21-.19,36.62-5.49,54.16-15.8,9.67-5.24,16.27-12.53,18.52-22.54.37-1.66,5.33-1.69,5.31-2.45-.14-5.11-.15-10.98-1.7-15.46-1.6-4.14-4.56-13.96-7.76-18.45-.85-1.2-1.78-2.74-1.7-3.2.16-.93,2.87-4.37,3.95-8.17,3.61-12.73,4.51-28.36,2.17-39.31-1.17-5.46-7.62-4.67-17.68-1.43-12.13,3.9-24.11,11.8-28.47,16.3-11.72-3.88-23.74-6.89-41.11-4.54"/>
    </g>
    <g id="Layer_4" data-name="Layer 4">
      <path class="cls-3" d="M48.92,28.31c2.14.61,5.37,1.83,8.65,4.36,4.63,3.56,6.9,7.82,7.9,10.08,0,0-7.29,7.56-7.35,8.03s-3.06-3.68-7.22-6.2c-4.15-2.52-6.67-3.68-7.22-3.81s5.24-12.46,5.24-12.46h0Z"/>
      <path class="cls-3" d="M68.85,10.32c2.08,1.14,6.63,4.07,9.9,9.48,3.62,5.97,3.8,11.74,3.74,14.09l-9.15,3.8s-.79-4.82-3.38-8.43c-2.59-3.61-5.89-6.56-8.03-7.97-2.14-1.4-3.96-2.6-3.96-2.6,0,0,4.16-3.92,5.57-5.03,1.77-1.4,5.31-3.35,5.31-3.35h0Z"/>
      <path class="cls-3" d="M79.49,5.47c3.48-.89,8.53-1.92,13.48-1.84,1,.02,2.21.08,3.68.51.91.27,3.96,1.21,6.33,4.19,2.2,2.77,2.53,5.67,2.66,6.94.12,1.23.36,4.05-1.12,7.05-1.41,2.85-3.61,4.3-5.62,5.62-2.35,1.55-4.55,2.34-6.03,2.76,0,0-.28-5.25-.61-6.94s-1.53-4.99-2.35-6.59c-.88-1.71-2.42-3.86-4.6-6.18-3.39-3.6-5.82-5.51-5.82-5.51h0Z"/>
      <path class="cls-3" d="M56.42,160c-1.45-.41-3.56-1.09-5.24-2.83-2.47-2.55-2.95-5.6-3.23-7.35-.41-2.56-.1-4.54-.03-4.94.46-2.77,1.6-4.59,3.51-7.56.49-.76,2.11-3.21,4.7-6.16,2.4-2.74,3.02-2.92,3.68-4.46.23-.54,1.55-3.62.07-6.88-1.26-2.76-3.72-3.87-4.46-4.19-2.97-1.28-5.73-.53-7.01-.17-2.34.67-4.1,2.18-7.52,5.17-3.25,2.84-5.31,5.18-6.88,6.98-1.99,2.28-3,3.45-3.95,5.24-1.59,3.01-2,5.61-2.11,6.43-.17,1.29-.42,3.12.07,5.31.88,3.97,3.44,5.89,2.93,6.47-.54.62-3.66-1.26-5.41-2.31-1.54-.93-3.22-1.94-5.28-3.71-1.66-1.43-4.54-3.95-6.77-8.1-.76-1.42-1.48-2.77-1.87-4.73-.52-2.56-.19-4.67.1-6.43.75-4.53,2.25-6.66,1.63-7.11-1.04-.77-5.73,5.12-7.25,4.19-.81-.5-.31-2.7.65-6.67,1-4.19,2.18-7.37,2.79-8.95,1.21-3.13,2.45-5.72,3.47-7.69,1.97-3.79,3.77-6.49,4.32-7.32,1.32-1.95,2.37-3.29,3.95-5.31,1.79-2.29,3.4-4.34,5.31-6.43,4.67-5.12,9.12-8.27,10.04-8.92,4.11-2.88,7.65-4.54,10.42-5.82,1.41-.66,3.65-1.69,6.74-2.76,6.15-2.13,11.05-2.82,12.77-3.03,1.47-.18,2.63-.26,4.94-.41,3.82-.25,7.48-.49,11.91-.2,3.52.22,6.15.69,7.8.99,9.47,1.71,16.29,4.8,18.04,5.62,5.3,2.47,8.97,5.01,10.49,6.09,2.76,1.98,4.53,3.61,4.94,3.98,1.18,1.09,1.46,1.47,4.8,5.07,4.25,4.59,4.4,4.64,5.58,6.09,1.78,2.18,3.01,4,4.02,5.48,1.08,1.59,2.27,3.34,3.57,5.69.71,1.28,2.7,4.95,4.46,10.08.47,1.37,1.04,3.58,2.18,8,1.21,4.71,1.38,5.8.89,6.13-1.37.92-6.29-4.92-7.32-4.12-.41.32.25,1.38.89,4.15.18.78.79,3.59.75,6.84-.03,2.07-.03,3.49-.65,5.28-.65,1.89-1.59,3.1-3.3,5.31-.68.87-1.71,2.19-3.3,3.68-1.17,1.09-2.17,1.84-4.32,3.3-4.88,3.33-7.33,4.98-7.73,4.56-.38-.4,1.28-1.85,2.35-4.87,1.17-3.31.82-6.24.68-7.35-.46-3.57-2.02-5.87-4.26-9.19-2.4-3.56-4.59-5.61-8.51-9.26-4.11-3.83-5.79-4.71-7.49-5.21-1.02-.3-3.35-.96-6.13-.2-1.05.29-3.57.97-5,3.3-.96,1.55-.99,3.13-1.02,4.49-.02.91-.04,2.37.71,3.95.43.9.94,1.49,1.19,1.77,3.52,4.01,5.28,6.02,6.23,7.25,1.03,1.34,2.87,3.79,3.85,7.42.31,1.16.85,3.26.54,5.99-.32,2.81-1.36,4.78-1.74,5.45-.47.83-1.09,1.91-2.28,2.93-1.81,1.56-4.55,1.76-4.55,1.76,0,0,.99-.83,1.91-2.29,1.59-2.52,2.05-5.63,2.26-7.35.11-.85.3-4.22-1.01-8.3-.39-1.22-.87-2.23-1.33-3.11-.59-1.13-1.19-2.05-1.76-2.87-.8-1.15-3.64-4.89-8.67-8.29-1.46-.99-2.84-1.71-4.07-2.33-.84-.42-1.63-.76-2.33-1.03-.66-.26-1.25-.48-1.77-.64-1.09-.34-1.84-.54-2.21-.62-1.28-.25-2.38-.47-2.82-.44-.9.06-1.61.15-3.63.65-1.21.3-2.53.75-4.72,1.73-1.62.73-3.04,1.57-4.54,2.51-1.14.72-2.2,1.5-3.5,2.54-.89.71-1.86,1.68-2.96,2.91-.91,1.01-1.91,2.2-2.88,3.65-.37.56-.62.97-1.06,1.74-.95,1.67-1.18,2.6-1.88,4.52-.14.39-.33,1.33-.33,1.33,0,0-.25,1.17-.34,1.87-.13,1.02-.2,2.2-.11,3.59.04.61.09.93.17,1.56.06.4.16.87.24,1.29.1.52.22.99.34,1.46.26,1.04.64,1.88,1.02,2.71.66,1.43,1.99,2.75,2.66,3.43h0Z"/>
    </g>
    <g id="Layer_3" data-name="Layer 3">
      <path class="cls-1" d="M16.39,63.92c-.02-1.57.05-3.87.12-5.27.04-.36.03-.84.45-.93.65-.07,1.46.2,2.21.32,1.88.37,3.42.72,4.94,1.68,2.98,1.78,6.6,4.72,9.55,7.81,1.01,1.04,3.06,3.89,3.06,3.89,0,0,.4.07.72-.12,1.18-.68,4.5-2.64,6.89-3.99,1-.6,2.34-1.45,2.34-1.45,0,0-.44-.68-.7-1.03-1.8-2.15-3.6-4-5.85-5.71-8.99-6.68-19.72-10.35-29.12-12.13-1.58-.17-1.72,1.27-2.03,2.82-2.13,16.28.43,25.09,5.64,38.83.41,1.19,2.66,3.51,2.66,3.51,0,0,.49-.4.73-.68.73-.96,1.76-2.36,2.47-3.39.25-.36.42-.81.42-.81,0,0-.16-.59-.33-1.11-2.3-6.78-4.11-15.98-4.17-22.18v-.07Z"/>
      <path class="cls-1" d="M139.79,64.24c.02-1.57-.04-3.87-.12-5.27-.04-.36-.03-.84-.44-.93-.65-.07-1.46.2-2.21.32-1.88.37-3.42.72-4.95,1.67-2.98,1.77-6.61,4.71-9.57,7.79-1.01,1.04-2.08,2.71-2.9,3.67-.12.13-.27.32-.27.32,0,0-.43-.13-.61-.23-1.18-.68-4.5-2.65-6.88-4-.97-.58-2.33-1.23-2.33-1.23,0,0,.41-.87.7-1.26,1.8-2.15,3.6-3.99,5.86-5.7,9-6.66,19.74-10.32,29.14-12.08,1.58-.17,1.72,1.27,2.02,2.82,2.11,16.29-.48,25.09-5.71,38.82-.42,1.19-2.67,3.51-2.67,3.51,0,0-.48-.42-.72-.7-.72-.96-1.75-2.36-2.47-3.39-.25-.37-.42-.81-.42-.81,0,0,.17-.59.34-1.1,2.31-6.77,4.14-15.97,4.21-22.17v-.07h0Z"/>
      <path class="cls-1" d="M38.57,111.04c4.89-2.24,8.94-2.84,11.51-3,2.6-.16,3.8.12,4.36.27,2.91.81,5.01,2.78,7.15,4.83,2.51,2.41,3.47,3.27,3.47,3.27,0,0,1.79-6.94-.82-12.39-.82-1.72-2.52-5.28-6.6-7.22-5.81-2.76-11.44.12-11.85.34-4.8,2.56-7.64,8.03-7.22,13.89h0Z"/>
      <path class="cls-1" d="M78.08,122.51s-.08,0-.37.02c-.26.02-.61.05-1.15.14-.44.08-.98.19-1.59.33-.23.05-.47.11-.71.17-.22.06-.45.11-.69.19-.35.1-.71.21-1.09.35-3.12,1.14-7.31,3.1-11.78,6.87-.45.38-.77.77-.92.92-1.98,2.06-5.77,6-7.25,11.85-.34,1.35-1.12,4.57-.31,8.58.41,2.04,1.07,5.27,3.88,7.86,2.85,2.63,6.18,3.02,7.56,3.17,1.36.14,5.67.23,9.4-2.45,1.86-1.33,2.71-4.94,2.92-5.98.03-.16-.05-.33-.2-.41-.45-.23-1.59-.86-4.16-2.43-1.66-1.02-2.69-2.41-3.05-3.32-.76-1.94-.62-3.75.09-4.92.63-1.05,1.07-1.96,2.06-2.28,2.79-.91,6.19-.73,7.08-.67h.26s.18,0,.25,0c.9-.07,4.3-.24,7.08.68.99.33,1.42,1.23,2.05,2.29.7,1.17.84,2.98.07,4.92-.36.91-1.39,2.3-3.05,3.31-2.57,1.56-3.72,2.19-4.16,2.42-.15.08-.23.24-.2.41.21,1.04,1.06,4.65,2.91,5.99,3.72,2.69,8.03,2.61,9.39,2.47,1.38-.14,4.71-.53,7.56-3.15,2.82-2.59,3.48-5.81,3.9-7.86.82-4.01.05-7.23-.29-8.58-1.47-5.85-5.24-9.79-7.22-11.86-.15-.15-.47-.54-.92-.92-4.46-3.78-8.65-5.75-11.76-6.9-.39-.14-.74-.25-1.09-.36-.24-.07-.47-.13-.69-.19-.25-.07-.49-.12-.71-.17-.61-.15-1.14-.26-1.59-.34-.55-.1-.89-.12-1.15-.15-.3-.03-.37-.02-.37-.02"/>
      <path class="cls-1" d="M117.09,110.9c-4.89-2.23-8.95-2.81-11.52-2.96-2.6-.15-3.8.13-4.36.29-2.91.81-5,2.8-7.13,4.86-2.51,2.42-3.46,3.28-3.46,3.28,0,0-1.81-6.94.78-12.39.82-1.73,2.51-5.29,6.58-7.24,5.8-2.78,11.44.09,11.85.3,4.81,2.54,7.66,8,7.26,13.87h0Z"/>
    </g>
  </g>
  <g>
    <path class="cls-4" d="M236.93,143.73c-5.12,0-9.79-.86-14.02-2.59-4.22-1.73-7.91-4.16-11.04-7.3-3.14-3.13-5.57-6.82-7.3-11.04s-2.59-8.86-2.59-13.92.86-9.7,2.59-13.92c1.73-4.22,4.16-7.9,7.3-11.04s6.82-5.57,11.04-7.3,8.86-2.59,13.92-2.59,9.7.86,13.92,2.59c4.22,1.73,7.9,4.16,11.04,7.3,3.13,3.14,5.55,6.82,7.25,11.04,1.7,4.22,2.54,8.87,2.54,13.92s-.85,9.62-2.54,13.87c-1.7,4.26-4.11,7.95-7.25,11.09s-6.82,5.57-11.04,7.3c-4.22,1.73-8.83,2.59-13.82,2.59ZM236.83,128.37c2.62,0,5.04-.48,7.25-1.44s4.13-2.32,5.76-4.08c1.63-1.76,2.9-3.82,3.79-6.19.9-2.37,1.34-4.96,1.34-7.78s-.45-5.41-1.34-7.78c-.9-2.37-2.16-4.43-3.79-6.19-1.63-1.76-3.55-3.12-5.76-4.08s-4.62-1.44-7.25-1.44-5.04.48-7.25,1.44-4.14,2.32-5.81,4.08c-1.67,1.76-2.93,3.83-3.79,6.19-.86,2.37-1.3,4.96-1.3,7.78s.43,5.42,1.3,7.82c.86,2.4,2.13,4.46,3.79,6.19,1.66,1.73,3.6,3.07,5.81,4.03s4.62,1.44,7.25,1.44Z"/>
    <path class="cls-4" d="M284.25,142.77v-67.2h14.59l24.48,39.84-10.46-.1,24.77-39.74h14.02v67.2h-15.84v-20.93c0-5.76.14-10.94.43-15.55.29-4.61.78-9.18,1.49-13.73l1.82,4.99-18.62,28.9h-6.34l-18.24-28.7,1.82-5.18c.7,4.29,1.2,8.69,1.49,13.2.29,4.51.43,9.87.43,16.08v20.93h-15.84Z"/>
    <path class="cls-4" d="M399.74,143.73c-5.38,0-10.24-.86-14.59-2.59-4.35-1.73-8.1-4.16-11.23-7.3-3.14-3.13-5.54-6.83-7.2-11.09-1.67-4.26-2.5-8.88-2.5-13.87s.88-9.58,2.64-13.78c1.76-4.19,4.27-7.86,7.54-10.99,3.26-3.14,7.12-5.57,11.57-7.3,4.45-1.73,9.3-2.59,14.54-2.59,3.71,0,7.21.48,10.51,1.44,3.3.96,6.29,2.27,8.98,3.94,2.69,1.67,4.96,3.58,6.82,5.76l-9.89,10.46c-1.6-1.54-3.25-2.82-4.94-3.84-1.7-1.02-3.5-1.84-5.42-2.45-1.92-.61-3.97-.91-6.14-.91-2.82,0-5.39.51-7.73,1.54-2.34,1.02-4.38,2.45-6.14,4.27-1.76,1.82-3.12,3.97-4.08,6.43s-1.44,5.14-1.44,8.02.51,5.57,1.54,8.06c1.02,2.5,2.43,4.66,4.22,6.48,1.79,1.82,3.92,3.26,6.38,4.32,2.46,1.06,5.1,1.58,7.92,1.58,1.98,0,3.85-.32,5.62-.96,1.76-.64,3.28-1.5,4.56-2.59,1.28-1.09,2.3-2.38,3.07-3.89.77-1.5,1.15-3.12,1.15-4.85v-2.5l2.11,3.26h-18.53v-12.77h31.58c.13.71.22,1.67.29,2.88.06,1.22.11,2.4.14,3.55.03,1.15.05,2.02.05,2.59,0,4.35-.78,8.34-2.35,11.95-1.57,3.62-3.76,6.74-6.58,9.36-2.82,2.62-6.14,4.67-9.98,6.14s-8,2.21-12.48,2.21Z"/>
    <path class="cls-4" d="M474.81,143.73c-5.38,0-10.24-.86-14.59-2.59-4.35-1.73-8.1-4.16-11.23-7.3-3.14-3.13-5.54-6.83-7.2-11.09-1.67-4.26-2.5-8.88-2.5-13.87s.88-9.58,2.64-13.78c1.76-4.19,4.27-7.86,7.54-10.99,3.26-3.14,7.12-5.57,11.57-7.3,4.45-1.73,9.3-2.59,14.54-2.59,3.71,0,7.21.48,10.51,1.44,3.3.96,6.29,2.27,8.98,3.94,2.69,1.67,4.96,3.58,6.82,5.76l-9.89,10.46c-1.6-1.54-3.25-2.82-4.94-3.84-1.7-1.02-3.5-1.84-5.42-2.45-1.92-.61-3.97-.91-6.14-.91-2.82,0-5.39.51-7.73,1.54-2.34,1.02-4.38,2.45-6.14,4.27-1.76,1.82-3.12,3.97-4.08,6.43s-1.44,5.14-1.44,8.02.51,5.57,1.54,8.06c1.02,2.5,2.43,4.66,4.22,6.48,1.79,1.82,3.92,3.26,6.38,4.32,2.46,1.06,5.1,1.58,7.92,1.58,1.98,0,3.85-.32,5.62-.96,1.76-.64,3.28-1.5,4.56-2.59,1.28-1.09,2.3-2.38,3.07-3.89.77-1.5,1.15-3.12,1.15-4.85v-2.5l2.11,3.26h-18.53v-12.77h31.58c.13.71.22,1.67.29,2.88.06,1.22.11,2.4.14,3.55.03,1.15.05,2.02.05,2.59,0,4.35-.78,8.34-2.35,11.95-1.57,3.62-3.76,6.74-6.58,9.36-2.82,2.62-6.14,4.67-9.98,6.14s-8,2.21-12.48,2.21Z"/>
  </g>
</svg>